<svg width="633" height="140" viewBox="0 0 633 140" fill="none" xmlns="http://www.w3.org/2000/svg">
<path d="M2.95054 129.512C2.95054 128.586 4.16737 128.069 6.57949 128.069C8.40892 128.117 10.2102 128.531 11.8775 129.285L12.8682 127.25C10.8947 126.248 8.70661 125.742 6.49335 125.775C2.54134 125.775 0.33382 127.347 0.33382 129.662C0.33382 135.047 11.1022 132.818 11.1022 135.736C11.1022 136.877 9.70233 137.631 7.07484 137.631C4.93202 137.629 2.82837 137.057 0.979925 135.973L0 138.126C2.14782 139.347 4.58298 139.972 7.0533 139.935C11.4899 139.935 13.7082 138.126 13.7082 135.757C13.7082 130.061 2.93977 132.204 2.93977 129.533" fill="#1D1D1B"/>
<path d="M23.7238 125.678C19.4164 125.678 15.8413 128.596 15.8413 132.839C15.8413 137.081 19.4164 139.989 23.7238 139.989C28.0311 139.989 31.5632 137.125 31.5632 132.839C31.5632 128.553 28.0311 125.678 23.7238 125.678ZM23.7238 137.695C20.4933 137.695 18.4365 135.628 18.4365 132.839C18.4435 132.166 18.5883 131.502 18.8621 130.887C19.1359 130.272 19.5328 129.721 20.0284 129.265C20.5239 128.81 21.1075 128.462 21.7431 128.241C22.3787 128.02 23.0528 127.932 23.7238 127.982C26.9543 127.982 28.968 130.136 28.968 132.839C28.968 135.542 26.9543 137.695 23.7238 137.695Z" fill="#1D1D1B"/>
<path d="M41.9321 137.631C38.6154 137.631 36.5479 135.618 36.5479 132.818C36.5479 130.018 38.6046 128.015 41.9321 128.015C43.704 128 45.4284 128.588 46.8209 129.684L48.1562 127.703C46.3476 126.331 44.1256 125.617 41.8567 125.678C37.3878 125.678 33.9312 128.597 33.9312 132.818C33.9312 137.039 37.3017 139.99 41.8244 139.99C44.122 140.055 46.376 139.354 48.2316 137.997L46.8855 136.005C45.4684 137.098 43.7213 137.675 41.9321 137.642" fill="#1D1D1B"/>
<path d="M53.4002 126.098H50.8911V139.612H53.4002V126.098Z" fill="#1D1D1B"/>
<path d="M59.4744 133.84H67.0984V131.6H59.4744V128.337H69.2844V126.098H56.9653V139.612H69.7151V137.372H59.4744V133.84Z" fill="#1D1D1B"/>
<path d="M70.834 128.316H76.3474V139.612H78.8564V128.316H84.3591V126.098H70.834V128.316Z" fill="#1D1D1B"/>
<path d="M88.9045 133.84H96.5178V131.6H88.9045V128.337H98.7146V126.098H86.3955V139.612H99.1345V137.372H88.9045V133.84Z" fill="#1D1D1B"/>
<path d="M118.678 136.759C117.465 137.299 116.151 137.574 114.823 137.566C111.506 137.566 109.438 135.574 109.438 132.774C109.438 129.975 111.495 127.939 114.823 128.015C116.591 127.976 118.32 128.542 119.722 129.619L121.047 127.627C119.231 126.28 117.018 125.579 114.758 125.635C110.289 125.635 106.822 128.553 106.822 132.774C106.822 136.996 110.192 139.989 114.715 139.989C116.981 139.993 119.201 139.346 121.111 138.126V132.882H118.678V136.759Z" fill="#1D1D1B"/>
<path d="M127.012 133.84H134.647V131.6H127.012V128.337H136.822V126.098H124.503V139.612H137.253V137.372H127.012V133.84Z" fill="#1D1D1B"/>
<path d="M151.221 129.63C151.221 131.622 151.221 133.689 151.371 136.252L142.552 126.076H140V139.591H142.444V136.058C142.444 134.917 142.444 131.428 142.358 129.425L151.145 139.601H153.676V126.098H151.221V129.63Z" fill="#1D1D1B"/>
<path d="M159.748 133.84H167.383V131.6H159.748V128.337H169.569V126.098H157.25V139.612H169.989V137.372H159.748V133.84Z" fill="#1D1D1B"/>
<path d="M186.003 130.394C186.003 127.864 184.215 126.087 181.34 126.087H172.639V139.601H175.159V134.605H179.197L183.009 139.58H186.154L182.137 134.605C183.189 134.528 184.173 134.056 184.891 133.282C185.608 132.509 186.006 131.492 186.003 130.437V130.394ZM175.159 132.43V128.381H181.34C181.622 128.35 181.907 128.382 182.176 128.473C182.444 128.564 182.689 128.713 182.894 128.909C183.099 129.105 183.259 129.343 183.363 129.607C183.466 129.871 183.511 130.154 183.494 130.437C183.494 131.622 182.6 132.43 181.039 132.43H175.159Z" fill="#1D1D1B"/>
<path d="M193.573 126.098L187.004 139.612H189.707L191.258 136.328H198.559L200.11 139.612H202.812L196.211 126.098H193.573ZM192.292 134.131L194.919 128.65L197.504 134.131H192.292Z" fill="#1D1D1B"/>
<path d="M207.119 126.098H204.61V139.612H216.154V137.372H207.119V126.098Z" fill="#1D1D1B"/>
<path d="M220.624 133.84H228.248V131.6H220.624V128.337H230.434V126.098H218.115V139.612H230.865V137.372H220.624V133.84Z" fill="#1D1D1B"/>
<path d="M250.84 136.823C249.638 137.363 248.335 137.638 247.018 137.631C243.733 137.631 241.633 135.649 241.633 132.882C241.633 130.115 243.669 128.101 246.931 128.176C248.682 128.135 250.393 128.698 251.777 129.77L253.091 127.81C251.297 126.469 249.106 125.768 246.867 125.818C242.441 125.818 239.017 128.704 239.017 132.882C239.017 137.06 242.387 139.968 246.867 139.968C249.107 139.975 251.302 139.336 253.188 138.126V132.947H250.786L250.84 136.823Z" fill="#1D1D1B"/>
<path d="M269.834 130.503C269.834 127.983 268.057 126.195 265.204 126.195H256.589V139.57H259.066V134.649H263.071L266.851 139.57H269.952L266.011 134.605C267.055 134.535 268.033 134.071 268.748 133.307C269.464 132.544 269.863 131.538 269.866 130.492L269.834 130.503ZM259.098 132.441V128.424H265.225C265.509 128.39 265.797 128.419 266.068 128.509C266.339 128.6 266.586 128.749 266.792 128.947C266.998 129.145 267.158 129.386 267.259 129.654C267.361 129.921 267.402 130.207 267.379 130.492C267.379 131.655 266.507 132.441 264.967 132.441H259.098Z" fill="#1D1D1B"/>
<path d="M279.73 125.818C275.423 125.818 271.934 128.704 271.934 132.904C271.934 137.104 275.466 139.99 279.73 139.99C283.994 139.99 287.494 137.147 287.494 132.904C287.494 128.661 284.005 125.818 279.73 125.818ZM279.73 137.664C276.499 137.664 274.496 135.618 274.496 132.861C274.505 132.196 274.649 131.539 274.921 130.932C275.193 130.324 275.586 129.779 276.076 129.329C276.566 128.879 277.143 128.535 277.772 128.316C278.4 128.097 279.066 128.01 279.73 128.058C282.907 128.058 284.91 130.212 284.91 132.861C284.91 135.51 282.907 137.664 279.73 137.664Z" fill="#1D1D1B"/>
<path d="M301.353 133.905C301.353 136.134 299.974 137.707 297.045 137.707C294.116 137.707 292.738 136.113 292.738 133.905V126.217H290.25V134.164C290.25 137.524 292.792 140 296.991 140C301.191 140 303.743 137.577 303.743 134.164V126.217H301.267L301.353 133.905Z" fill="#1D1D1B"/>
<path d="M315.547 126.228H307.255V139.613H309.721V135.122H315.547C318.465 135.122 320.317 133.518 320.317 130.815C320.337 130.193 320.226 129.573 319.99 128.997C319.755 128.421 319.4 127.901 318.95 127.471C318.5 127.041 317.964 126.711 317.377 126.502C316.791 126.294 316.167 126.211 315.547 126.26V126.228ZM315.687 132.936H309.721V128.467H315.547C315.857 128.453 316.166 128.506 316.454 128.623C316.741 128.739 317 128.917 317.213 129.143C317.426 129.369 317.587 129.638 317.686 129.932C317.785 130.226 317.819 130.539 317.786 130.847C317.799 131.126 317.753 131.404 317.651 131.664C317.55 131.923 317.396 132.159 317.198 132.356C317 132.552 316.764 132.706 316.504 132.806C316.243 132.905 315.965 132.95 315.687 132.936Z" fill="#1D1D1B"/>
<path d="M398.409 39.7571H371.229V22.8076H363.551V64.3198H371.229V46.5627H398.409V64.3198H406.108V22.8076H398.409V39.7571Z" fill="#1D1D1B"/>
<path d="M111.142 22.7861V64.2876H118.841V50.3532H136.878C145.956 50.3532 151.642 45.4213 151.642 36.9035C151.642 28.7088 145.956 22.7861 136.878 22.7861H111.142ZM143.802 37.0112C143.845 37.8711 143.708 38.7305 143.398 39.534C143.089 40.3374 142.615 41.0671 142.006 41.6759C141.397 42.2847 140.667 42.7591 139.864 43.0685C139.06 43.3779 138.201 43.5155 137.341 43.4722H118.841V29.6564H136.878C141.304 29.6564 143.802 32.8869 143.802 37.0112Z" fill="#1D1D1B"/>
<path d="M180.155 21.5371C166.931 21.5371 155.98 30.4857 155.98 43.5047C155.98 56.5237 166.931 65.4722 180.155 65.4722C193.379 65.4722 204.222 56.6636 204.222 43.5047C204.222 30.3457 193.432 21.5371 180.155 21.5371ZM180.155 58.4404C170.248 58.4404 163.938 52.0871 163.938 43.5047C163.938 35.1484 170.517 28.6119 180.155 28.6119C190.008 28.6119 196.254 35.1484 196.254 43.5047C196.254 52.0332 190.008 58.4404 180.155 58.4404Z" fill="#1D1D1B"/>
<path d="M236.432 58.2031C226.245 58.2031 219.881 52.022 219.881 43.4504C219.881 35.1372 226.191 28.7085 236.324 28.7085C241.754 28.6427 247.043 30.4447 251.303 33.8127L255.406 27.707C249.85 23.5313 243.046 21.3568 236.098 21.5367C222.357 21.5367 211.75 30.4852 211.75 43.4612C211.75 56.6094 222.207 65.4179 236.098 65.4179C244.293 65.4179 250.484 63.1996 255.729 59.323L251.637 53.2389C247.27 56.5565 241.915 58.3088 236.432 58.2139" fill="#1D1D1B"/>
<path d="M329.351 22.8184L309.15 64.3198H317.452L322.212 54.2513H344.621L349.359 64.3198H357.672L337.406 22.8184H329.351ZM325.41 47.4995L333.433 30.6685L341.391 47.4995H325.41Z" fill="#1D1D1B"/>
<path d="M455.492 22.8076H446.037L425.179 42.18V22.8076H417.479V64.3198H425.179V44.1829L446.037 64.3198H456.386L434.031 42.783L455.492 22.8076Z" fill="#1D1D1B"/>
<path d="M290.145 38.2167H272.118V29.462H301.818V23.001H264.419V64.427H290.145C299.212 64.427 305.447 59.4951 305.447 51.3111C305.447 42.8041 299.212 38.2167 290.145 38.2167ZM290.586 57.5999H272.118V45.0654H290.586C295.41 45.0654 298.124 47.6283 298.124 51.3111C298.124 55.4246 295.97 57.5783 290.586 57.5783" fill="#1D1D1B"/>
<path d="M83.7559 41.7275H0.300781V83.4551H83.7559V41.7275Z" fill="#1D1D1B"/>
<path d="M83.7559 0H0.300781V41.7276H83.7559V42.5567V0Z" fill="#E4032E"/>
<path d="M83.7559 41.7275H0.300781V42.5675H83.7559V41.7275Z" fill="#230000"/>
<path d="M69.1976 39.1865H14.8926V44.2584H69.1976V39.1865Z" fill="white"/>
<path d="M474.272 57.9665C476.22 55.8802 478.019 53.6601 479.656 51.3223C481.384 48.8578 482.89 46.2453 484.157 43.5153C485.552 40.4846 486.704 37.3484 487.603 34.136C488.635 30.4196 489.398 26.6337 489.886 22.8076H515.73V57.9665H520.188V77.5326H512.607V64.3198H479.042V77.5326H471.504V57.9665H474.272ZM496.455 29.161C495.982 32.1088 495.331 35.0252 494.506 37.8941C493.78 40.4214 492.866 42.8907 491.771 45.2813C490.726 47.5237 489.513 49.6835 488.142 51.7423C486.752 53.8367 485.253 55.8567 483.651 57.7942V57.9234H508.052V29.161H496.455Z" fill="#E4032E"/>
<path d="M624.803 64.309V54.919C624.803 51.43 624.803 40.5216 625.083 34.3836L624.965 34.3298L608.123 56.2327L591.12 34.319L591.012 34.3729C591.227 40.5109 591.227 51.4193 591.227 54.9082V64.309H583.689V22.8076H591.787L608.188 44.7213L624.814 22.8076H632.416V64.309H624.803Z" fill="#E4032E"/>
<path d="M550.535 21.5371C537.312 21.5371 526.36 30.4857 526.36 43.5047C526.36 56.5237 537.312 65.4722 550.535 65.4722C563.759 65.4722 574.603 56.6636 574.603 43.5047C574.603 30.3457 563.813 21.5371 550.535 21.5371ZM550.535 58.4404C540.628 58.4404 534.318 52.0871 534.318 43.5047C534.318 35.1484 540.898 28.6119 550.535 28.6119C560.389 28.6119 566.634 35.1484 566.634 43.5047C566.634 52.0332 560.389 58.4404 550.535 58.4404Z" fill="#E4032E"/>
</svg>
