<svg width="110" height="152" viewBox="0 0 110 152" fill="none" xmlns="http://www.w3.org/2000/svg">
<path d="M54.9451 1.61378C54.9451 1.49471 54.9216 1.37672 54.8761 1.26671C54.8305 1.1567 54.7637 1.05678 54.6795 0.972579C54.5953 0.888381 54.4954 0.821608 54.3854 0.776041C54.2754 0.730473 54.1575 0.707031 54.0384 0.707031H0.296875V29.0916H1.50324V1.90551H53.7388V74.9564H1.50324V47.7703H0.296875V104.539H1.50324V77.3455H53.7388V150.404H1.50324V123.289H0.296875V151.674H54.0384C54.0384 151.433 54.1339 151.203 54.304 151.033C54.474 150.862 54.7046 150.767 54.9451 150.767C55.1856 150.767 55.4162 150.862 55.5863 151.033C55.7563 151.203 55.8518 151.433 55.8518 151.674H109.593V123.289H108.387V150.475H56.1594V77.4164H108.387V104.611H109.593V47.8413H108.387V75.0274H56.1594V1.97644H108.387V29.1626H109.593V0.777966H55.8518C55.6232 0.777265 55.4027 0.863022 55.2345 1.01801C55.0664 1.17299 54.963 1.38581 54.9451 1.61378Z" fill="black"/>
</svg>
