<svg width="2279" height="2050" viewBox="0 0 2279 2050" fill="none" xmlns="http://www.w3.org/2000/svg">
<path fill-rule="evenodd" clip-rule="evenodd" d="M447.1 1093.6V1230.58H0.333984V1683.37H181.436V1678.91H184.456L184.755 1509.34L353.565 1508.23V1868.39L266.046 1868.32V2050H665.07V1683.29H2022.43L2278.09 1300.17V0H1580.41V20.1215H1752.34V34.3138H1740.26L1740.2 38.0827H1752.34V182.923H1740.26V186.7H1752.34V191.226H1756.11V180.597H1817.66V176.82H1756.12V20.1215H1857.41V54.5537H1847.85V75.9288H1856.65V176.852H1847.85V198.227H1869.22V176.82H1860.43V75.9288H1869.22V54.5537H1861.17V20.1215H1962.47V176.82H1899.39V180.597H2081.31V176.82H1966.2V20.1215H2120.02V55.6023H2111.49V207.208H2115.26V197.171H2159.48V55.5787H2123.79V20.0979H2261.48V237.398H2111.53V241.175H2261.48V342.46H2115.3V271.365H2111.53V346.229H2261.48V443.998H2115.3V376.419H2111.53V456.322H2261.48V552.585H2115.3V486.481H2111.53V556.323H2261.48V706.659H2115.3V586.544H2111.53V660.731H2028.69V664.508H2042.09V667.519H2045.86V664.515H2100.2V703.757H2045.86V691.686H2042.09V703.757H1988.11V691.686H1984.34V703.757H1929.99V664.515H1984.34V667.527H1988.11V664.515H2001.51V660.731H1889.35V664.508H1914.9V703.749H1862.18V660.731H1847.85V885.813H1856.12V853.904H1860.06V849.615H1857.04V767.764H1919.54V849.567H1892.64V853.904H1954.54V849.008H1923.74V768.364H1940.34V715.836H2009.18V743.007H1972.95V741.493H1972.16V745.27H1972.95V743.764H2009.18V770.934H1972.95V769.42H1972.16V774.703H2009.14V802.102H1997.07V802.89H2009.14V830.25H1982.59V848.968H1978.65V853.644H2027.35L2027.25 830.558H2060.6V825.275H2059.81V826.781H2023.58V799.61H2059.81V801.124H2060.6V797.348H2059.81V798.861H2023.58V771.683H2059.81V773.197H2060.6V769.42H2059.81V770.934H2023.58V743.764H2059.81V745.27H2060.6V741.493H2059.81V743.007H2023.58V715.836H2059.81V717.342H2060.6V715.836H2092.41V825.906H2111.42L2111.47 881.271H2027.3V880.814H2022.47V931.843H1856.1V925.07H1847.83V984.528H1867.54V979.995H2124.95V939.365H2214.61V1013.17H2125.84V1010.15H2118.93V1020.06H2198.76V1069.16H2110.69V1072.94H2198.76V1127.28H2076V1072.94H2080.52V1069.16H2076V1016.19H2067.68V1019.97H2072.21V1098.46H2002.77V1019.97H2037.47V1016.19H1994.44V1019.97H1998.98V1098.46H1929.54V1019.97H1964.23V1016.19H1921.22V1019.97H1925.74V1098.46H1856.37V1019.97H1891.06V1016.19H1849.47V1154.4H1895.59V1150.63H1853.22V1105.34H1925.76V1154.4H1929.53V1105.34H1998.97V1150.63H1959.72V1154.4H2002.74V1105.34H2069.08V1150.63H2032.99V1154.4H2069.13V1167.37H2112.91V1134.16H2205.66V1020.09H2221.53V979.995H2261.48V1130.42H2235.85V1134.19H2261.48V1231.96H2110.5V1244.28H2261.48V1296.36L2136.91 1482.39L2132.4 1479.36L2128.23 1485.56H1952.09V1494.87H1992.78V1642.56H1980.7V1666.67H1869.16V1642.55H1857.16V1625.32H1849.5V1586.07H1857.16V1557.39H1849.5V1518.14H1857.16V1511.48H1869.24V1494.88H1891.76V1485.58H1715.07V1650.25H1701.09V1666.69H1606.57V1490.09H1604.94V1405.5H1659.26V1401.73H1604.92V1327.3H1659.26V1325.73H1603.4V1490.06H1525.3V1493.84H1585.22V1511.48H1602.82V1642.57H1585.22V1666.67H1493.61V1490.09H1418.59V1493.87H1489.84V1666.66H1388.4V1490.09H1384.63V1666.66H1343.91V1642.55H1322.54V1666.66H1283.9V1493.9H1322.49V1511.48H1343.86V1493.88H1354.39V1490.11H1280.12V1666.64H1177.59V1493.87H1249.97V1490.09H1111.45V1493.87H1175.18V1666.66H1081.26V1642.55H1072.54V1511.48H1081.26V1490.11H1059.88V1511.48H1070.13V1642.57H1059.88V1666.67H967.477V1493.86H1029.69V1490.08H939.628V1493.86H965.056V1666.66H842.758V1493.87H909.43V1490.09H691.815V1493.87H797.232V1511.48H839.021V1642.57H797.232V1666.67H659.906V1623.05H661.617V1440.27H543.876V1397.22H534.564V1511.47H543.623L543.584 1623.05H487.879V1626.82H543.584V1715.69H555.474V1760.35H543.584V1793.75H555.458V1838.87H543.584V1872.67H555.458V1918.52H543.584V2029.85H370.178V2015.36H366.551V2019.19H358.666V2026.73H368.546V2029.89H298.372L299.208 1939.35H365.636V1982.19H370.17V1927.88H366.543V1935.77H298.309V1885.01L366.551 1885.05V1903.77H370.178V1626.82H427.53V1623.05H370.178V1527.77H381.476V1490.03L60.8326 1489.99V1493.93H167.851V1662.31H164.831V1666.75H25.4071V1663.93H30.6424V1642.56H18.5711V1511.48H30.6424V1490.11H22.2296V1248.84H84.4076V1266.18H88.1765V1248.84H156.449V1300.91H88.1765V1296.38H84.4076V1342.47H88.1765V1304.68H156.449V1419.51H88.1765V1381.72H84.4076V1423.28H160.187V1304.66H215.221V1300.89H160.187L160.407 1248.81H249.945V1300.89H245.411V1304.66H249.945V1330.13H312.565V1283.55H308.796V1326.36H253.714V1248.84H308.757V1253.36H312.565V1248.84H465.337V1093.6H447.1Z" fill="black"/>
</svg>
